# xmcd CD database file
#
# Track frame offsets:
#	150
#	12715
#	25208
#	40164
#	51389
#	70864
#	87349
#	103378
#	115204
#	132560
#	161978
#	174144
#	186396
#
# Disc length: 2690 seconds
#
# Revision: 0
# Processed by: cddbd v1.5.2PL0 Copyright (c) Steve Scherf et al.
# Submitted via: CDex 1.70beta2
#
DISCID=be0a800d
DTITLE=Varios - Les Etoiles de Cube (vol 2)
DYEAR=1900
DGENRE=Salsa
TTITLE0=Sera cuando tu digas
TTITLE1=Baja y tapa la olla
TTITLE2=Beso discreto
TTITLE3=El Catigador
TTITLE4=Echale Salsita
TTITLE5=Lagrimas negras
TTITLE6=Son de la loma
TTITLE7=Fomento
TTITLE8=Guantanamera
TTITLE9=Saludo a Paris
TTITLE10=Piensa en mi
TTITLE11=El Diablo Tun Tun
TTITLE12=Mambo en Re Menor
EXTD=
EXTT0=
EXTT1=
EXTT2=
EXTT3=
EXTT4=
EXTT5=
EXTT6=
EXTT7=
EXTT8=
EXTT9=
EXTT10=
EXTT11=
EXTT12=
PLAYORDER=
